<?xml version="1.0" standalone="no"?>
<!DOCTYPE svg PUBLIC "-//W3C//DTD SVG 20010904//EN"
 "http://www.w3.org/TR/2001/REC-SVG-20010904/DTD/svg10.dtd">
<svg version="1.0" xmlns="http://www.w3.org/2000/svg"
 width="512.000000pt" height="512.000000pt" viewBox="0 0 512.000000 512.000000"
 preserveAspectRatio="xMidYMid meet">
<metadata>
Created by potrace 1.16, written by Peter Selinger 2001-2019
</metadata>
<g transform="translate(0.000000,512.000000) scale(0.100000,-0.100000)"
fill="#000000" stroke="none">
<path d="M2603 5094 c-24 -14 -54 -44 -68 -68 l-25 -43 0 -641 0 -642 -355 0
-355 0 0 138 c0 123 -3 142 -24 187 -34 73 -69 110 -138 144 l-61 31 -577 0
-577 0 -61 -31 c-69 -34 -105 -71 -139 -145 l-23 -51 2 -1864 3 -1864 25 -50
c31 -64 101 -134 165 -165 l50 -25 2124 -3 2124 -2 51 23 c74 34 111 70 145
139 l31 61 0 1377 0 1377 -31 61 c-34 69 -71 104 -144 138 -45 21 -64 24 -187
24 l-138 0 0 138 c0 135 -1 141 -31 200 -34 69 -71 104 -144 138 -49 23 -55
24 -392 24 l-343 0 0 642 0 641 -25 43 c-15 26 -43 54 -69 69 l-43 25 -364 0
-364 0 -42 -26z m707 -1308 l0 -1133 26 -27 c26 -25 30 -26 148 -26 l121 0
-298 -297 -297 -298 -297 298 -298 297 121 0 c118 0 122 1 148 26 l26 27 0
1133 0 1134 300 0 300 0 0 -1134z m-1787 203 c66 -18 72 -38 75 -250 4 -186 4
-188 29 -213 l26 -26 428 0 429 0 0 -150 0 -150 -793 0 -794 0 -61 -31 c-65
-32 -99 -66 -135 -133 l-22 -41 -5 -1340 -5 -1340 -22 -35 c-28 -46 -71 -70
-123 -70 -52 0 -95 24 -123 70 l-22 35 0 1805 c0 1705 1 1807 18 1833 9 14 32
31 50 36 46 13 1002 14 1050 0z m2620 -500 c59 -16 71 -45 76 -176 l3 -113
-356 0 -356 0 0 150 0 150 298 0 c175 0 312 -4 335 -11z m-1633 -589 l0 -100
-74 0 c-41 0 -87 -5 -103 -11 -38 -14 -92 -67 -109 -106 -19 -43 -18 -125 1
-171 19 -44 605 -638 674 -683 38 -25 55 -29 111 -29 56 0 73 4 111 29 69 45
655 639 674 683 17 43 20 124 4 165 -14 38 -67 92 -106 109 -18 8 -66 14 -108
14 l-75 0 0 100 0 101 568 -3 c639 -3 611 0 632 -77 7 -27 9 -453 8 -1343 -3
-1096 -5 -1306 -17 -1324 -35 -52 85 -49 -1943 -52 l-1887 -2 14 35 c13 29 15
203 15 1200 l0 1165 249 0 248 0 27 26 c37 38 37 110 0 148 l-27 26 -250 0
-250 0 5 65 c7 77 26 111 71 124 18 5 349 10 785 10 l752 1 0 -100z"/>
<path d="M1726 2774 c-21 -21 -26 -36 -26 -74 0 -38 5 -53 26 -74 21 -21 36
-26 74 -26 38 0 53 5 74 26 21 21 26 36 26 74 0 38 -5 53 -26 74 -21 21 -36
26 -74 26 -38 0 -53 -5 -74 -26z"/>
</g>
</svg>
