<?xml version="1.0" standalone="no"?>
<!DOCTYPE svg PUBLIC "-//W3C//DTD SVG 20010904//EN"
 "http://www.w3.org/TR/2001/REC-SVG-20010904/DTD/svg10.dtd">
<svg version="1.0" xmlns="http://www.w3.org/2000/svg"
 width="512.000000pt" height="512.000000pt" viewBox="0 0 512.000000 512.000000"
 preserveAspectRatio="xMidYMid meet">
<metadata>
Created by potrace 1.16, written by Peter Selinger 2001-2019
</metadata>
<g transform="translate(0.000000,512.000000) scale(0.100000,-0.100000)"
fill="#000000" stroke="none">
<path d="M823 5105 c-100 -31 -199 -120 -250 -224 l-28 -56 0 -2265 0 -2265
29 -60 c38 -77 124 -163 201 -201 l60 -29 1307 -3 1306 -2 21 26 c27 34 27 64
0 97 l-20 27 -1272 2 -1272 3 -50 23 c-27 13 -63 35 -79 50 -34 32 -76 116
-76 155 l0 27 1750 0 1750 0 0 -130 0 -130 -264 0 -265 0 -20 -26 c-27 -34
-27 -64 0 -98 l20 -26 297 0 c280 0 299 1 330 20 53 32 62 69 62 240 l0 150
48 0 c70 0 118 17 146 51 l26 31 0 2278 0 2279 -34 35 -33 36 -1432 0 c-1418
0 -1431 0 -1451 -20 -12 -12 -20 -33 -20 -55 0 -22 8 -43 20 -55 20 -20 33
-20 1405 -20 l1385 0 0 -1429 0 -1428 -101 -7 c-282 -20 -450 -72 -814 -256
-148 -75 -313 -150 -365 -168 -213 -72 -476 -102 -724 -83 -297 23 -433 65
-766 234 -129 66 -271 135 -315 153 l-80 32 -5 570 c-5 543 -6 571 -24 591
-26 28 -88 29 -116 1 -20 -20 -20 -33 -20 -1315 l0 -1295 -195 0 -195 0 0
2098 0 2097 24 50 c26 56 78 107 134 131 20 8 81 18 135 21 l97 6 0 -790 0
-790 23 -21 c29 -27 77 -28 108 -3 l24 19 3 791 2 791 85 0 c99 0 125 15 125
75 0 22 -8 43 -20 55 -19 19 -33 20 -297 19 -201 0 -290 -4 -320 -14z m3597
-3845 l0 -690 -1585 0 -1585 0 0 635 c0 521 2 635 13 635 8 0 137 -62 288
-138 332 -168 467 -216 691 -246 329 -45 656 -21 933 67 62 19 207 85 380 172
166 83 321 153 380 172 148 48 310 79 433 82 l52 1 0 -690z"/>
<path d="M2566 981 c-25 -28 -23 -88 3 -115 21 -20 30 -21 267 -21 l246 0 25
29 c19 23 23 36 19 59 -14 67 -12 67 -291 67 -237 0 -253 -1 -269 -19z"/>
<path d="M2309 4675 c-14 -7 -33 -31 -42 -52 -66 -149 -537 -1412 -537 -1439
0 -23 7 -38 26 -53 30 -24 52 -26 88 -10 27 13 38 36 107 221 l44 118 374 -3
373 -2 59 -155 c36 -95 68 -162 81 -173 45 -37 128 1 128 58 0 19 -503 1367
-541 1448 -24 52 -103 73 -160 42z m216 -641 c83 -218 152 -401 153 -405 2 -5
-136 -9 -308 -9 -246 0 -311 3 -308 13 80 216 304 797 308 797 3 0 73 -178
155 -396z"/>
<path d="M3811 3961 c-11 -11 -23 -35 -26 -54 l-7 -35 -63 30 c-159 74 -352
33 -471 -100 -13 -15 -39 -56 -56 -92 -31 -61 -33 -71 -33 -170 1 -94 3 -111
28 -162 99 -204 343 -291 538 -193 26 14 50 25 53 25 2 0 7 -16 10 -35 8 -38
47 -75 81 -75 12 0 34 9 49 21 l26 20 0 400 c0 386 -1 400 -20 419 -26 26 -83
27 -109 1z m-143 -218 c64 -39 105 -107 110 -183 5 -73 -11 -122 -56 -172 -66
-73 -149 -99 -235 -74 -131 38 -202 168 -166 301 13 49 98 135 149 152 58 20
145 9 198 -24z"/>
<path d="M1978 2626 c-27 -20 -39 -62 -27 -93 21 -55 -21 -52 882 -53 518 0
845 4 856 10 31 16 46 65 31 100 -7 17 -21 35 -31 40 -11 6 -338 10 -856 10
-672 -1 -841 -3 -855 -14z"/>
<path d="M2404 2273 c-52 -10 -76 -92 -38 -134 16 -18 35 -19 469 -19 424 0
453 1 468 18 30 33 32 75 4 108 l-25 29 -429 1 c-235 1 -438 0 -449 -3z"/>
</g>
</svg>
