<?xml version="1.0" standalone="no"?>
<!DOCTYPE svg PUBLIC "-//W3C//DTD SVG 20010904//EN"
 "http://www.w3.org/TR/2001/REC-SVG-20010904/DTD/svg10.dtd">
<svg version="1.0" xmlns="http://www.w3.org/2000/svg"
 width="512.000000pt" height="512.000000pt" viewBox="0 0 512.000000 512.000000"
 preserveAspectRatio="xMidYMid meet">
<metadata>
Created by potrace 1.16, written by Peter Selinger 2001-2019
</metadata>
<g transform="translate(0.000000,512.000000) scale(0.100000,-0.100000)"
fill="#000000" stroke="none">
<path d="M2398 5101 c-170 -55 -305 -184 -367 -353 l-11 -28 -489 0 c-315 0
-509 -4 -543 -11 -190 -39 -363 -205 -413 -394 -13 -52 -15 -285 -15 -1955 0
-2091 -4 -1947 63 -2074 67 -128 223 -247 359 -275 37 -8 514 -11 1603 -9
l1550 3 60 22 c177 68 322 237 354 417 15 84 15 3749 0 3832 -35 197 -206 377
-406 429 -47 12 -146 15 -553 15 l-496 0 -13 38 c-57 162 -210 302 -381 347
-77 21 -231 18 -302 -4z m257 -310 c85 -38 137 -116 149 -222 8 -67 34 -112
78 -136 26 -14 63 -18 181 -21 l147 -4 0 -244 0 -244 -650 0 -650 0 0 244 0
244 149 3 c132 4 153 7 177 25 46 34 64 66 75 134 6 36 18 83 28 105 19 44 77
100 125 121 45 19 143 17 191 -5z m-1055 -721 c0 -387 1 -395 78 -438 l40 -22
850 2 c847 3 851 3 879 24 15 12 37 36 48 55 19 32 20 55 23 377 l3 342 267 0
c247 0 270 -2 312 -21 55 -25 95 -62 123 -114 l22 -40 3 -1863 2 -1863 -21
-49 c-24 -55 -81 -113 -138 -138 -33 -16 -162 -17 -1531 -17 l-1495 0 -58 29
c-62 30 -106 79 -129 144 -10 30 -13 393 -13 1887 l0 1850 21 45 c26 56 76
107 129 131 36 17 70 19 313 19 l272 0 0 -340z"/>
<path d="M1466 3110 c-60 -19 -106 -83 -106 -147 0 -160 214 -213 288 -72 52
99 -5 206 -118 223 -19 3 -48 1 -64 -4z"/>
<path d="M2280 3113 c-62 -12 -120 -85 -120 -151 0 -45 41 -113 80 -134 33
-17 76 -18 718 -18 761 0 730 -3 774 68 45 72 20 174 -52 217 -34 20 -50 20
-705 21 -368 1 -681 -1 -695 -3z"/>
<path d="M1466 2440 c-60 -19 -106 -83 -106 -147 0 -159 213 -213 287 -73 26
50 29 87 9 134 -28 67 -119 108 -190 86z"/>
<path d="M2275 2443 c-59 -15 -115 -88 -115 -151 0 -44 41 -112 80 -134 33
-17 67 -18 730 -16 677 3 696 4 722 23 40 30 62 74 62 126 0 62 -29 109 -84
137 l-44 22 -666 -1 c-366 -1 -674 -4 -685 -6z"/>
<path d="M1444 1760 c-110 -55 -112 -217 -3 -272 77 -40 167 -12 207 63 71
133 -69 278 -204 209z"/>
<path d="M2266 1770 c-58 -18 -106 -85 -106 -148 0 -44 41 -112 80 -133 33
-18 72 -19 718 -19 676 0 685 0 722 21 100 56 101 198 3 265 -27 18 -60 19
-708 21 -374 1 -693 -2 -709 -7z"/>
<path d="M1444 1090 c-110 -55 -112 -217 -3 -272 77 -40 173 -8 210 70 65 133
-75 269 -207 202z"/>
<path d="M2255 1096 c-55 -25 -95 -85 -95 -143 0 -46 37 -108 79 -131 l39 -22
684 0 685 0 33 23 c55 37 74 71 74 131 0 43 -5 61 -28 91 -52 67 -23 65 -768
65 -539 -1 -679 -3 -703 -14z"/>
</g>
</svg>
