<svg width="0" height="0" class="hidden">
  <symbol viewBox="0 0 512.077 512.077" xmlns="http://www.w3.org/2000/svg" id="elephant">
    <path d="M477.055 336.539c-20.432 0-37.055-16.623-37.055-37.055V242.23c24.961-4.363 44-26.177 44-52.369v-52.644c0-29.323-23.855-53.178-53.178-53.178-11.761 0-23.088 3.917-32.292 10.951-21.705-19.245-50.24-30.951-81.461-30.951-18.48 0-36.268 7.247-49.502 20h-97.464c-22.705 0-44.466 5.071-64.677 15.074-4.95 2.45-6.977 8.448-4.527 13.398a10 10 0 0 0 8.971 5.567 9.984 9.984 0 0 0 4.428-1.04c17.429-8.625 36.204-12.999 55.806-12.999h34.05c-7.29 9.103-11.664 20.636-11.664 33.178v52.644c0 29.323 23.855 53.178 53.178 53.178 29.322 0 53.178-23.855 53.178-53.178 0-5.523-4.478-10-10-10s-10 4.477-10 10c0 18.294-14.884 33.178-33.178 33.178s-33.178-14.884-33.178-33.178v-52.644c0-18.294 14.884-33.178 33.178-33.178 10.595 0 20.305 4.883 26.641 13.398 3.297 4.43 9.56 5.351 13.992 2.053 4.431-3.297 5.35-9.562 2.053-13.992a52.811 52.811 0 0 0-6.624-7.329c9.493-9.012 22.171-14.13 35.341-14.13C373.825 84.039 420 130.213 420 186.97v112.514c0 31.46 25.595 57.055 57.055 57.055 8.283 0 15.023 6.739 15.023 15.022 0 9.086-7.392 16.478-16.478 16.478h-39.613c-43.4 0-79.619-31.316-87.259-72.538A65.697 65.697 0 0 0 370 319.039c16.542 0 30-13.458 30-30s-13.458-30-30-30c-3.309 0-6-2.691-6-6 0-16.542-13.458-30-30-30s-30 13.458-30 30c0 20.129 9.068 38.17 23.322 50.286a108.109 108.109 0 0 0 5.926 31.615c-11.472 8.372-24.612 14.526-38.394 17.922a9.999 9.999 0 0 0-7.608 9.71v65.467h-44v-62c0-5.523-4.478-10-10-10H122.104c-5.522 0-10 4.477-10 10v62h-44V325.616c0-12.592-3.094-24.978-8.948-35.82-9.847-18.235-15.052-38.899-15.052-59.757 0-19.095 4.16-37.433 12.364-54.504 2.392-4.978.296-10.953-4.683-13.345-4.976-2.393-10.952-.297-13.345 4.682-8.277 17.225-13.001 35.554-14.089 54.596C10.285 225.673 0 238.726 0 254.142v101.896c0 5.523 4.478 10 10 10 5.523 0 10-4.477 10-10V254.142c0-4.181 1.84-7.932 4.739-10.517 1.824 19.483 7.546 38.503 16.817 55.673 4.283 7.932 6.547 17.033 6.547 26.318v102.673c0 10.89 8.859 19.75 19.75 19.75h92.5c10.891 0 19.75-8.86 19.75-19.75v-52.25h43.142v52.25c0 10.89 8.859 19.75 19.75 19.75h92.49c10.891 0 19.75-8.86 19.75-19.75v-56.241c19.918 22.085 48.74 35.991 80.751 35.991H475.6c20.114 0 36.478-16.364 36.478-36.478-.001-19.311-15.712-35.022-35.023-35.022zm-64.56-226.973a33.187 33.187 0 0 1 18.327-5.527c18.294 0 33.178 14.884 33.178 33.178v52.644c0 15.11-10.158 27.885-24 31.877V186.97c0-29.312-10.318-56.256-27.505-77.404zM334 243.039c5.514 0 10 4.486 10 10 0 14.336 11.663 26 26 26 5.514 0 10 4.486 10 10s-4.486 10-10 10c-25.364 0-46-20.636-46-46 0-5.515 4.486-10 10-10zm-173.896 185h-28v-52h28zm147.141 0v-57.884a130.481 130.481 0 0 0 27.99-12.569v70.454h-27.99z"></path>
    <path d="M357.945 189.108c1.87-1.86 2.931-4.44 2.931-7.07s-1.061-5.21-2.931-7.07a10.056 10.056 0 0 0-7.069-2.93c-2.63 0-5.21 1.07-7.07 2.93s-2.93 4.44-2.93 7.07 1.069 5.21 2.93 7.07c1.86 1.86 4.44 2.93 7.07 2.93a10.05 10.05 0 0 0 7.069-2.93zm-284.559-44.68a10.1 10.1 0 0 0 7.08-2.93c1.859-1.86 2.93-4.44 2.93-7.07s-1.07-5.21-2.93-7.07a10.1 10.1 0 0 0-7.08-2.93c-2.63 0-5.2 1.07-7.07 2.93-1.859 1.86-2.93 4.44-2.93 7.07s1.07 5.21 2.93 7.07c1.87 1.86 4.44 2.93 7.07 2.93z"></path>
  </symbol>
  <symbol xmlns="http://www.w3.org/2000/svg" viewBox="0 0 512 512" id="talking">
    <path d="M452 370.868V211.58c0-35.732-15.441-67.925-40-90.257V50c0-27.57-22.43-50-50-50H251c-5.523 0-10 4.478-10 10s4.477 10 10 10h111c16.542 0 30 13.458 30 30v56.549c-18.181-10.773-39.379-16.969-62-16.969-38.587 0-73.042 18.012-95.414 46.064C229.314 125.191 218.485 118 206 118c-17.645 0-32 14.355-32 32s14.355 32 32 32c1.968 0 3.892-.188 5.763-.53A121.801 121.801 0 00208 211.58V280h-80c-5.523 0-10 4.478-10 10v33.984l-41.056-41.056a10.001 10.001 0 00-7.071-2.929H50c-16.542 0-30-13.458-30-30V50c0-16.542 13.458-30 30-30h111c5.523 0 10-4.478 10-10s-4.477-10-10-10H50C22.43 0 0 22.43 0 50v200c0 27.57 22.43 50 50 50h15.731l55.198 55.198A10 10 0 00138 348.127V300h70v70.868c-36.357 26.736-60 69.798-60 118.286V502c0 5.522 4.477 10 10 10h344c5.523 0 10-4.478 10-10v-12.847c0-48.487-23.643-91.55-60-118.285zM194 150c0-6.617 5.383-12 12-12s12 5.383 12 12-5.383 12-12 12-12-5.383-12-12zm34 61.58c0-56.243 45.757-102 102-102s102 45.757 102 102v146.901c-17.292-8.869-36.566-14.394-56.963-15.744v-22.785c22.36-14.661 37.168-39.93 37.168-68.606v-44.729c0-5.522-4.477-10-10-10h-31.268c7.125-8.984 11.397-20.329 11.397-32.659 0-5.522-4.477-10-10-10s-10 4.478-10 10c0 18.009-14.651 32.659-32.659 32.659h-71.47c-5.523 0-10 4.478-10 10v44.729c0 28.542 14.667 53.712 36.851 68.402v22.982c-20.431 1.339-39.738 6.867-57.056 15.75zm140.679 155.018v48.958l-24.524-24.434zm-52.834 24.524l-24.524 24.434v-48.958zm76.36-174.504v34.729c0 34.186-27.813 61.998-62 61.998s-62-27.813-62-61.998v-34.729zm-62 116.727a81.659 81.659 0 0024.832-3.854v18.746l-24.978 24.782-25.003-24.785v-18.851a81.655 81.655 0 0025.149 3.962zM492 492h-42.545v-42.391c0-5.522-4.477-10-10-10s-10 4.478-10 10V492h-198.91v-42.391c0-5.522-4.477-10-10-10s-10 4.478-10 10V492H168v-2.847c0-61.887 44.586-113.548 103.321-124.571v56.736c0 7.14 4.26 13.522 10.854 16.261a17.56 17.56 0 0019.18-3.789L330 405.251l28.646 28.54a17.561 17.561 0 0019.18 3.789 17.557 17.557 0 0010.854-16.261v-56.736C447.414 375.605 492 427.266 492 489.153z"></path>
    <path d="M329.845 290.063c7.368 0 14.295-2.869 19.505-8.079 3.905-3.906 3.905-10.237 0-14.143-3.905-3.904-10.237-3.904-14.142 0-1.432 1.433-3.336 2.222-5.362 2.222s-3.93-.789-5.362-2.222c-3.904-3.903-10.236-3.904-14.142 0-3.905 3.905-3.906 10.236 0 14.143 5.208 5.21 12.135 8.079 19.503 8.079zM85.451 150c0 17.645 14.355 32 32 32s32-14.355 32-32-14.355-32-32-32-32 14.355-32 32zm44 0c0 6.617-5.383 12-12 12s-12-5.383-12-12 5.383-12 12-12 12 5.383 12 12zM206 20c2.63 0 5.21-1.07 7.07-2.931C214.93 15.21 216 12.63 216 10s-1.07-5.21-2.93-7.07S208.63 0 206 0s-5.21 1.069-7.07 2.93C197.07 4.79 196 7.37 196 10s1.07 5.21 2.93 7.069A10.072 10.072 0 00206 20z"></path>
  </symbol>
</svg>